<!DOCTYPE svg PUBLIC "-//W3C//DTD SVG 1.1//EN" "http://www.w3.org/Graphics/SVG/1.1/DTD/svg11.dtd">
<!-- Uploaded to: SVG Repo, www.svgrepo.com, Transformed by: SVG Repo Mixer Tools -->
<svg fill="#9c9c9c" width="64px" height="64px" viewBox="0 0 100 100" enable-background="new 0 0 100 100" id="Layer_1" version="1.1" xml:space="preserve" xmlns="http://www.w3.org/2000/svg" xmlns:xlink="http://www.w3.org/1999/xlink" stroke="#9c9c9c">
<g id="SVGRepo_bgCarrier" stroke-width="0"/>
<g id="SVGRepo_tracerCarrier" stroke-linecap="round" stroke-linejoin="round"/>
<g id="SVGRepo_iconCarrier"> <g> <path d="M50,82.3c7.6,0,13.8-6.2,13.8-13.8c0-4.4-2-8.4-5.5-11V26c0-2.2-0.9-4.3-2.4-5.9c-1.6-1.6-3.7-2.4-5.9-2.4 c-4.6,0-8.3,3.7-8.3,8.3v31.5c-3.4,2.6-5.5,6.6-5.5,11C36.2,76.1,42.4,82.3,50,82.3z M44.8,60.3l0.9-0.6V48.2H50v-4h-4.3v-1.8H50 v-4h-4.3v-1.8H50v-4h-4.3v-1.8H50v-4h-4.3V26c0-2.4,1.9-4.3,4.3-4.3c1.1,0,2.2,0.4,3,1.3c0.8,0.8,1.3,1.9,1.3,3v33.6l0.9,0.6 c2.8,1.8,4.5,4.9,4.5,8.2c0,5.4-4.4,9.8-9.8,9.8s-9.8-4.4-9.8-9.8C40.2,65.1,41.9,62.1,44.8,60.3z"/> <path d="M50,76.6c4.5,0,8.1-3.6,8.1-8.1c0-3.8-2.6-6.9-6.1-7.8v-8.1h-4v8.1c-3.5,0.9-6.1,4.1-6.1,7.8C41.9,73,45.5,76.6,50,76.6z M50,64.4c2.3,0,4.1,1.8,4.1,4.1s-1.8,4.1-4.1,4.1s-4.1-1.8-4.1-4.1S47.7,64.4,50,64.4z"/> </g> </g>
</svg>